<svg id="Vector" xmlns="http://www.w3.org/2000/svg" viewBox="0 0 1200 1200"><defs><style>.cls-1{fill:#f8f8f8;}.cls-2,.cls-7{fill:none;}.cls-2{stroke:#efefef;stroke-linecap:round;stroke-linejoin:round;stroke-width:5px;}.cls-3{fill:#efefef;}.cls-4{fill:#56cad8;}.cls-5{fill:#74d5de;}.cls-6{fill:#fd8369;}.cls-7{stroke:#fd8369;stroke-miterlimit:10;stroke-width:9px;}.cls-8{fill:#de8e68;}.cls-9{fill:#f9c87a;}.cls-10{fill:#fed385;}.cls-11{fill:#d37c59;}.cls-12{fill:#fed892;}</style></defs><title>Artboard 1</title><rect class="cls-1" x="181.21" y="128" width="553.1" height="553.1"/><polyline class="cls-2" points="523.96 185.42 523.96 339.63 621.1 339.63"/><ellipse class="cls-3" cx="735.11" cy="944.85" rx="292.89" ry="55.69"/><polyline points="841.88 919.32 841.88 939.03 903.26 939.03 903.26 930.31 864.16 919.32"/><polyline points="589.09 914.57 589.09 924.62 595.48 931.63 611.13 931.63 617.12 940.85 576.77 940.85 561.56 916.28 571.39 903"/><path class="cls-4" d="M791.56,617.51s75.52,113,82.1,137.43-9.5,164.38-9.5,164.38H841.88S825.07,818.5,829.82,783.06C813,772.84,740,726.43,734.11,702.51"/><path class="cls-5" d="M791.56,617.51c-7,17.24-73.88,156.79-73.88,156.79L589.09,914.57l-19-12.42L657,766,674.9,604.73"/><rect class="cls-6" x="496.76" y="674.35" width="178.59" height="95.36"/><circle class="cls-7" cx="586.05" cy="675.29" r="27.07"/><path class="cls-8" d="M837.31,483.6c2,4.23,8.05,34,7.85,50.88,10.25,5.43,69,53.4,76.21,57.31,10.49,5.7,14,5.7,14.88,6.36-1.86,3.33-10.78,18.24-10.78,18.24s-8.52-7.59-12.64-9.19-63.63-29.68-95.18-55c-5.42-4.35-12.11-19.7-12.51-24.1s1.06-39.8,1.06-39.8Z"/><path class="cls-8" d="M663.47,468.41c-3.06,3.68-43.62,44.94-54.39,68S594.72,587.2,591,600c-4.86,16.55-17.19,35.9-17.19,46.47,0,5.67,6.61,14.54,11.33,14.54s16.65-.78,19.26-17.94c4.08-26.78,21.53-69.49,28.7-78.36s65-69.87,67.42-74.21S673.47,456.32,663.47,468.41Z"/><path class="cls-9" d="M784.63,412.26c19.53-7.25,63.18,64.55,55.83,71.4s-49.7,23.22-57.33,17.22S764,419.91,784.63,412.26Z"/><path class="cls-10" d="M764.79,398.86C852,408.7,802.39,581,791.56,617.51c-19,8.59-109.27,5.2-116.66-12.78C672,582.08,683.79,393.05,764.79,398.86Z"/><path class="cls-11" d="M780.36,416.25c0,5.25-26.36,5.53-26.36,0V377.43h26.36Z"/><path class="cls-8" d="M775.77,302.24c-16.19,0-29.31,20.54-29.31,45.88,0,1.38,0,2.73.12,4.08a5.72,5.72,0,0,0,1.51,11c4,17.94,14.87,30.81,27.68,30.81,16.18,0,29.3-20.54,29.3-45.88S792,302.24,775.77,302.24Z"/><path d="M774.5,295.5c-10,0-34,8-44,8-28.11,0-27.42-10-56-10-15,0-31.84,9.83-51,18-19.9,8.48-46,7.12-46,43,0,12,3.77,51,45,51,30.1,0,59.16-27,87-27,11.56,0,20.16,3,30,3,6,0,13-1,15-3v-17s-1.31,1-6,1c-2,0-4-4-4-6,0-10.5,55-15.61,55-35,1.54,2.71,3.75,10.11,4.12,12.34,1.73-2.25,5.12-6,5.12-12.81C808.74,307.23,797.9,295.5,774.5,295.5Z"/><path class="cls-12" d="M728.73,413.72c17.76,10.87-11.69,89.56-21.62,88s-49-24.71-49-34.41S710,402.25,728.73,413.72Z"/><circle class="cls-8" cx="934.09" cy="609.77" r="12.25"/><path class="cls-2" d="M393.06,191.53a106.6,106.6,0,1,1-55.95-15.85V282.27Z"/><path class="cls-2" d="M337.11,282.27H443.7"/><path class="cls-2" d="M524,261.92c2.51,0,10.85-24.46,27.68-24.46,14.85,0,7.49,50.9,37.89,50.9,24.32,0,30.83-33.37,40.3-33.37,4.95,0,4.67,3.68,9.62,3.68,12,0,13.71-48.36,30.82-48.36"/><polyline class="cls-2" points="241.87 627.21 303.59 565.49 336.22 598.11 463.67 470.66 487.77 494.77 556.24 426.29 602.89 472.94 686.45 389.38"/></svg>